<svg width="524" height="137" viewBox="0 0 524 137" fill="none" xmlns="http://www.w3.org/2000/svg">
<path d="M232.34 -48.8666C335.839 -85.1489 411.587 -99.9839 477.75 -110.817L488.926 -78.9354C421.546 -69.9232 331.823 -53.7211 240.168 -21.5904C158.295 7.11071 100.236 42.7146 108.957 67.5907C115.122 85.1756 175.057 76.3654 284.009 50.6926C407.266 21.2901 509.031 1.50797 522.012 38.5363C534.692 74.7068 439.4 136.046 300.371 184.783C226.223 210.777 160.368 227.441 94.5047 239.132L83.9799 209.109C143.186 201.518 220.556 183.065 289.555 158.876C372.972 129.633 424.15 94.1936 417.184 74.3215C409.215 51.5903 331.18 69.7953 244.855 90.7461C105.901 124.849 12.8798 136.589 1.85382 105.137C-12.8308 63.2476 88.1628 1.67619 232.34 -48.8666Z" fill="white"/>
</svg>
