<svg width="24" height="24" viewBox="0 0 24 24" fill="none" xmlns="http://www.w3.org/2000/svg">
<g clip-path="url(#clip0_63_1259)">
<path d="M12.0001 5.8125C9.73622 5.8125 7.87511 6.85312 6.44803 8.19258C5.11122 9.45117 4.18761 10.9453 3.71539 12C4.18761 13.0547 5.11122 14.5488 6.44455 15.8074C7.87511 17.1469 9.73622 18.1875 12.0001 18.1875C14.264 18.1875 16.1251 17.1469 17.5522 15.8074C18.889 14.5488 19.8126 13.0547 20.2848 12C19.8126 10.9453 18.889 9.45117 17.5557 8.19258C16.1251 6.85312 14.264 5.8125 12.0001 5.8125ZM5.31261 6.95859C6.94803 5.41875 9.19455 4.125 12.0001 4.125C14.8057 4.125 17.0522 5.41875 18.6876 6.95859C20.3126 8.48789 21.3994 10.3125 21.9168 11.5676C22.0314 11.8453 22.0314 12.1547 21.9168 12.4324C21.3994 13.6875 20.3126 15.5156 18.6876 17.0414C17.0522 18.5812 14.8057 19.875 12.0001 19.875C9.19455 19.875 6.94803 18.5812 5.31261 17.0414C3.68761 15.5156 2.6008 13.6875 2.08691 12.4324C1.97233 12.1547 1.97233 11.8453 2.08691 11.5676C2.6008 10.3125 3.68761 8.48438 5.31261 6.95859ZM12.0001 14.8125C13.5348 14.8125 14.7779 13.5539 14.7779 12C14.7779 10.4461 13.5348 9.1875 12.0001 9.1875C11.9758 9.1875 11.955 9.1875 11.9307 9.1875C11.9758 9.3668 12.0001 9.55664 12.0001 9.75C12.0001 10.991 11.0036 12 9.77789 12C9.58691 12 9.39942 11.9754 9.22233 11.9297C9.22233 11.9543 9.22233 11.9754 9.22233 12C9.22233 13.5539 10.4654 14.8125 12.0001 14.8125ZM12.0001 7.5C13.1789 7.5 14.3093 7.97411 15.1428 8.81802C15.9763 9.66193 16.4446 10.8065 16.4446 12C16.4446 13.1935 15.9763 14.3381 15.1428 15.182C14.3093 16.0259 13.1789 16.5 12.0001 16.5C10.8214 16.5 9.69091 16.0259 8.85741 15.182C8.02392 14.3381 7.55566 13.1935 7.55566 12C7.55566 10.8065 8.02392 9.66193 8.85741 8.81802C9.69091 7.97411 10.8214 7.5 12.0001 7.5Z" fill="#667085"/>
</g>
<path d="M18.6366 4.36372C19.0272 3.9732 19.6603 3.9732 20.0509 4.36372C20.4414 4.75425 20.4414 5.38741 20.0509 5.77794L5.66669 20.1621C5.27617 20.5526 4.643 20.5526 4.25248 20.1621C3.86195 19.7716 3.86195 19.1384 4.25248 18.7479L18.6366 4.36372Z" fill="#667085"/>
<defs>
<clipPath id="clip0_63_1259">
<rect width="20" height="18" fill="white" transform="translate(2 3)"/>
</clipPath>
</defs>
</svg>
